<mxfile host="app.diagrams.net" modified="2024-02-25T13:55:00.128Z" agent="Mozilla/5.0 (Windows NT 10.0; Win64; x64) AppleWebKit/537.36 (KHTML, like Gecko) Chrome/120.0.0.0 Safari/537.36" etag="GJQg6jCFs-Yk5gjMHErJ" version="23.1.6" type="github">
  <diagram id="C5RBs43oDa-KdzZeNtuy" name="Page-1">
    <mxGraphModel dx="1877" dy="530" grid="1" gridSize="10" guides="1" tooltips="1" connect="1" arrows="1" fold="1" page="1" pageScale="1" pageWidth="827" pageHeight="1169" math="0" shadow="0">
      <root>
        <mxCell id="WIyWlLk6GJQsqaUBKTNV-0" />
        <mxCell id="WIyWlLk6GJQsqaUBKTNV-1" parent="WIyWlLk6GJQsqaUBKTNV-0" />
        <mxCell id="PHTcARnf6AAuARY0Qd6s-0" value="&lt;font face=&quot;Lucida Console&quot;&gt;Invoker&lt;/font&gt;" style="swimlane;fontStyle=1;align=center;verticalAlign=top;childLayout=stackLayout;horizontal=1;startSize=26;horizontalStack=0;resizeParent=1;resizeParentMax=0;resizeLast=0;collapsible=1;marginBottom=0;whiteSpace=wrap;html=1;fillColor=#60a917;fontColor=#ffffff;strokeColor=#2D7600;" vertex="1" parent="WIyWlLk6GJQsqaUBKTNV-1">
          <mxGeometry x="330" y="180" width="350" height="100" as="geometry" />
        </mxCell>
        <mxCell id="PHTcARnf6AAuARY0Qd6s-1" value="&amp;nbsp;" style="text;strokeColor=none;fillColor=none;align=left;verticalAlign=top;spacingLeft=4;spacingRight=4;overflow=hidden;rotatable=0;points=[[0,0.5],[1,0.5]];portConstraint=eastwest;whiteSpace=wrap;html=1;" vertex="1" parent="PHTcARnf6AAuARY0Qd6s-0">
          <mxGeometry y="26" width="350" height="26" as="geometry" />
        </mxCell>
        <mxCell id="PHTcARnf6AAuARY0Qd6s-2" value="" style="line;strokeWidth=1;fillColor=none;align=left;verticalAlign=middle;spacingTop=-1;spacingLeft=3;spacingRight=3;rotatable=0;labelPosition=right;points=[];portConstraint=eastwest;strokeColor=inherit;" vertex="1" parent="PHTcARnf6AAuARY0Qd6s-0">
          <mxGeometry y="52" width="350" height="8" as="geometry" />
        </mxCell>
        <mxCell id="PHTcARnf6AAuARY0Qd6s-3" value="&lt;font face=&quot;Lucida Console&quot;&gt;+ invoke(Object target, Object[] args): Object&lt;br&gt; + getType(): Class&amp;lt;?&amp;gt;&lt;/font&gt;&lt;font face=&quot;Lucida Console&quot;&gt;&lt;br&gt;&lt;/font&gt;" style="text;strokeColor=none;fillColor=none;align=left;verticalAlign=top;spacingLeft=4;spacingRight=4;overflow=hidden;rotatable=0;points=[[0,0.5],[1,0.5]];portConstraint=eastwest;whiteSpace=wrap;html=1;" vertex="1" parent="PHTcARnf6AAuARY0Qd6s-0">
          <mxGeometry y="60" width="350" height="40" as="geometry" />
        </mxCell>
        <mxCell id="PHTcARnf6AAuARY0Qd6s-4" value="&lt;font face=&quot;Lucida Console&quot;&gt;MethodInvoker&lt;/font&gt;" style="swimlane;fontStyle=1;align=center;verticalAlign=top;childLayout=stackLayout;horizontal=1;startSize=26;horizontalStack=0;resizeParent=1;resizeParentMax=0;resizeLast=0;collapsible=1;marginBottom=0;whiteSpace=wrap;html=1;fillColor=#0050ef;fontColor=#ffffff;strokeColor=#001DBC;" vertex="1" parent="WIyWlLk6GJQsqaUBKTNV-1">
          <mxGeometry x="760" y="180" width="350" height="118" as="geometry" />
        </mxCell>
        <mxCell id="PHTcARnf6AAuARY0Qd6s-5" value="&lt;font face=&quot;Lucida Console&quot;&gt;- type: Class&amp;lt;?&amp;gt;&lt;br&gt;- method: Method&lt;/font&gt;" style="text;strokeColor=none;fillColor=none;align=left;verticalAlign=top;spacingLeft=4;spacingRight=4;overflow=hidden;rotatable=0;points=[[0,0.5],[1,0.5]];portConstraint=eastwest;whiteSpace=wrap;html=1;" vertex="1" parent="PHTcARnf6AAuARY0Qd6s-4">
          <mxGeometry y="26" width="350" height="44" as="geometry" />
        </mxCell>
        <mxCell id="PHTcARnf6AAuARY0Qd6s-6" value="" style="line;strokeWidth=1;fillColor=none;align=left;verticalAlign=middle;spacingTop=-1;spacingLeft=3;spacingRight=3;rotatable=0;labelPosition=right;points=[];portConstraint=eastwest;strokeColor=inherit;" vertex="1" parent="PHTcARnf6AAuARY0Qd6s-4">
          <mxGeometry y="70" width="350" height="8" as="geometry" />
        </mxCell>
        <mxCell id="PHTcARnf6AAuARY0Qd6s-7" value="&lt;font face=&quot;Lucida Console&quot;&gt;+ invoke(Object target, Object[] args): Object&lt;br&gt; + getType(): Class&amp;lt;?&amp;gt;&lt;/font&gt;&lt;font face=&quot;Lucida Console&quot;&gt;&lt;br&gt;&lt;/font&gt;" style="text;strokeColor=none;fillColor=none;align=left;verticalAlign=top;spacingLeft=4;spacingRight=4;overflow=hidden;rotatable=0;points=[[0,0.5],[1,0.5]];portConstraint=eastwest;whiteSpace=wrap;html=1;" vertex="1" parent="PHTcARnf6AAuARY0Qd6s-4">
          <mxGeometry y="78" width="350" height="40" as="geometry" />
        </mxCell>
        <mxCell id="PHTcARnf6AAuARY0Qd6s-9" value="&lt;font face=&quot;Lucida Console&quot;&gt;SetFieldInvoker&lt;/font&gt;" style="swimlane;fontStyle=1;align=center;verticalAlign=top;childLayout=stackLayout;horizontal=1;startSize=26;horizontalStack=0;resizeParent=1;resizeParentMax=0;resizeLast=0;collapsible=1;marginBottom=0;whiteSpace=wrap;html=1;fillColor=#0050ef;fontColor=#ffffff;strokeColor=#001DBC;" vertex="1" parent="WIyWlLk6GJQsqaUBKTNV-1">
          <mxGeometry x="760" y="340" width="350" height="98" as="geometry" />
        </mxCell>
        <mxCell id="PHTcARnf6AAuARY0Qd6s-10" value="&lt;font face=&quot;Lucida Console&quot;&gt;- field: Field&lt;br&gt;&lt;/font&gt;" style="text;strokeColor=none;fillColor=none;align=left;verticalAlign=top;spacingLeft=4;spacingRight=4;overflow=hidden;rotatable=0;points=[[0,0.5],[1,0.5]];portConstraint=eastwest;whiteSpace=wrap;html=1;" vertex="1" parent="PHTcARnf6AAuARY0Qd6s-9">
          <mxGeometry y="26" width="350" height="24" as="geometry" />
        </mxCell>
        <mxCell id="PHTcARnf6AAuARY0Qd6s-11" value="" style="line;strokeWidth=1;fillColor=none;align=left;verticalAlign=middle;spacingTop=-1;spacingLeft=3;spacingRight=3;rotatable=0;labelPosition=right;points=[];portConstraint=eastwest;strokeColor=inherit;" vertex="1" parent="PHTcARnf6AAuARY0Qd6s-9">
          <mxGeometry y="50" width="350" height="8" as="geometry" />
        </mxCell>
        <mxCell id="PHTcARnf6AAuARY0Qd6s-12" value="&lt;font face=&quot;Lucida Console&quot;&gt;+ invoke(Object target, Object[] args): Object&lt;br&gt; + getType(): Class&amp;lt;?&amp;gt;&lt;/font&gt;&lt;font face=&quot;Lucida Console&quot;&gt;&lt;br&gt;&lt;/font&gt;" style="text;strokeColor=none;fillColor=none;align=left;verticalAlign=top;spacingLeft=4;spacingRight=4;overflow=hidden;rotatable=0;points=[[0,0.5],[1,0.5]];portConstraint=eastwest;whiteSpace=wrap;html=1;" vertex="1" parent="PHTcARnf6AAuARY0Qd6s-9">
          <mxGeometry y="58" width="350" height="40" as="geometry" />
        </mxCell>
        <mxCell id="PHTcARnf6AAuARY0Qd6s-14" value="&lt;font face=&quot;Lucida Console&quot;&gt;GetFieldInvoker&lt;/font&gt;" style="swimlane;fontStyle=1;align=center;verticalAlign=top;childLayout=stackLayout;horizontal=1;startSize=26;horizontalStack=0;resizeParent=1;resizeParentMax=0;resizeLast=0;collapsible=1;marginBottom=0;whiteSpace=wrap;html=1;fillColor=#0050ef;fontColor=#ffffff;strokeColor=#001DBC;" vertex="1" parent="WIyWlLk6GJQsqaUBKTNV-1">
          <mxGeometry x="760" y="480" width="350" height="100" as="geometry" />
        </mxCell>
        <mxCell id="PHTcARnf6AAuARY0Qd6s-15" value="&lt;font face=&quot;Lucida Console&quot;&gt;- field: Field&lt;/font&gt;" style="text;strokeColor=none;fillColor=none;align=left;verticalAlign=top;spacingLeft=4;spacingRight=4;overflow=hidden;rotatable=0;points=[[0,0.5],[1,0.5]];portConstraint=eastwest;whiteSpace=wrap;html=1;" vertex="1" parent="PHTcARnf6AAuARY0Qd6s-14">
          <mxGeometry y="26" width="350" height="26" as="geometry" />
        </mxCell>
        <mxCell id="PHTcARnf6AAuARY0Qd6s-16" value="" style="line;strokeWidth=1;fillColor=none;align=left;verticalAlign=middle;spacingTop=-1;spacingLeft=3;spacingRight=3;rotatable=0;labelPosition=right;points=[];portConstraint=eastwest;strokeColor=inherit;" vertex="1" parent="PHTcARnf6AAuARY0Qd6s-14">
          <mxGeometry y="52" width="350" height="8" as="geometry" />
        </mxCell>
        <mxCell id="PHTcARnf6AAuARY0Qd6s-17" value="&lt;font face=&quot;Lucida Console&quot;&gt;+ invoke(Object target, Object[] args): Object&lt;br&gt; + getType(): Class&amp;lt;?&amp;gt;&lt;/font&gt;&lt;font face=&quot;Lucida Console&quot;&gt;&lt;br&gt;&lt;/font&gt;" style="text;strokeColor=none;fillColor=none;align=left;verticalAlign=top;spacingLeft=4;spacingRight=4;overflow=hidden;rotatable=0;points=[[0,0.5],[1,0.5]];portConstraint=eastwest;whiteSpace=wrap;html=1;" vertex="1" parent="PHTcARnf6AAuARY0Qd6s-14">
          <mxGeometry y="60" width="350" height="40" as="geometry" />
        </mxCell>
        <mxCell id="PHTcARnf6AAuARY0Qd6s-19" value="&lt;font face=&quot;Lucida Console&quot;&gt;Reflector&lt;/font&gt;" style="swimlane;fontStyle=1;align=center;verticalAlign=top;childLayout=stackLayout;horizontal=1;startSize=26;horizontalStack=0;resizeParent=1;resizeParentMax=0;resizeLast=0;collapsible=1;marginBottom=0;whiteSpace=wrap;html=1;fillColor=#0050ef;fontColor=#ffffff;strokeColor=#001DBC;" vertex="1" parent="WIyWlLk6GJQsqaUBKTNV-1">
          <mxGeometry x="330" y="360" width="350" height="128" as="geometry" />
        </mxCell>
        <mxCell id="PHTcARnf6AAuARY0Qd6s-20" value="&lt;font face=&quot;Lucida Console&quot;&gt;- type: Class&amp;lt;?&amp;gt;&lt;br style=&quot;border-color: var(--border-color);&quot;&gt;- setMethods: Map&amp;lt;String, Invoker&amp;gt;&lt;br&gt;- getMethods:&amp;nbsp;Map&amp;lt;String, Invoker&amp;gt;&lt;/font&gt;" style="text;strokeColor=none;fillColor=none;align=left;verticalAlign=top;spacingLeft=4;spacingRight=4;overflow=hidden;rotatable=0;points=[[0,0.5],[1,0.5]];portConstraint=eastwest;whiteSpace=wrap;html=1;" vertex="1" parent="PHTcARnf6AAuARY0Qd6s-19">
          <mxGeometry y="26" width="350" height="54" as="geometry" />
        </mxCell>
        <mxCell id="PHTcARnf6AAuARY0Qd6s-21" value="" style="line;strokeWidth=1;fillColor=none;align=left;verticalAlign=middle;spacingTop=-1;spacingLeft=3;spacingRight=3;rotatable=0;labelPosition=right;points=[];portConstraint=eastwest;strokeColor=inherit;" vertex="1" parent="PHTcARnf6AAuARY0Qd6s-19">
          <mxGeometry y="80" width="350" height="8" as="geometry" />
        </mxCell>
        <mxCell id="PHTcARnf6AAuARY0Qd6s-22" value="&lt;font face=&quot;Lucida Console&quot;&gt;+ addSetMethods(Class&amp;lt;?&amp;gt; clazz)&lt;br&gt; +&amp;nbsp;&lt;/font&gt;&lt;font face=&quot;Lucida Console&quot;&gt;addGetMethods(Class&amp;lt;?&amp;gt; clazz)&lt;br&gt;&lt;/font&gt;" style="text;strokeColor=none;fillColor=none;align=left;verticalAlign=top;spacingLeft=4;spacingRight=4;overflow=hidden;rotatable=0;points=[[0,0.5],[1,0.5]];portConstraint=eastwest;whiteSpace=wrap;html=1;" vertex="1" parent="PHTcARnf6AAuARY0Qd6s-19">
          <mxGeometry y="88" width="350" height="40" as="geometry" />
        </mxCell>
        <mxCell id="PHTcARnf6AAuARY0Qd6s-24" value="&lt;font face=&quot;Lucida Console&quot;&gt;MetaClass&lt;/font&gt;" style="swimlane;fontStyle=1;align=center;verticalAlign=top;childLayout=stackLayout;horizontal=1;startSize=26;horizontalStack=0;resizeParent=1;resizeParentMax=0;resizeLast=0;collapsible=1;marginBottom=0;whiteSpace=wrap;html=1;fillColor=#0050ef;fontColor=#ffffff;strokeColor=#001DBC;" vertex="1" parent="WIyWlLk6GJQsqaUBKTNV-1">
          <mxGeometry x="330" y="566" width="350" height="98" as="geometry" />
        </mxCell>
        <mxCell id="PHTcARnf6AAuARY0Qd6s-25" value="&lt;font face=&quot;Lucida Console&quot;&gt;- reflector: Reflector&lt;/font&gt;&lt;font face=&quot;Lucida Console&quot;&gt;&lt;br&gt;&lt;/font&gt;" style="text;strokeColor=none;fillColor=none;align=left;verticalAlign=top;spacingLeft=4;spacingRight=4;overflow=hidden;rotatable=0;points=[[0,0.5],[1,0.5]];portConstraint=eastwest;whiteSpace=wrap;html=1;" vertex="1" parent="PHTcARnf6AAuARY0Qd6s-24">
          <mxGeometry y="26" width="350" height="24" as="geometry" />
        </mxCell>
        <mxCell id="PHTcARnf6AAuARY0Qd6s-26" value="" style="line;strokeWidth=1;fillColor=none;align=left;verticalAlign=middle;spacingTop=-1;spacingLeft=3;spacingRight=3;rotatable=0;labelPosition=right;points=[];portConstraint=eastwest;strokeColor=inherit;" vertex="1" parent="PHTcARnf6AAuARY0Qd6s-24">
          <mxGeometry y="50" width="350" height="8" as="geometry" />
        </mxCell>
        <mxCell id="PHTcARnf6AAuARY0Qd6s-27" value="&lt;font face=&quot;Lucida Console&quot;&gt;+ getSetInvoker(String name): Invoker&lt;br&gt; +&amp;nbsp;&lt;/font&gt;&lt;font face=&quot;Lucida Console&quot;&gt;getGetInvoker(String name): Invoker&lt;br&gt;&lt;/font&gt;" style="text;strokeColor=none;fillColor=none;align=left;verticalAlign=top;spacingLeft=4;spacingRight=4;overflow=hidden;rotatable=0;points=[[0,0.5],[1,0.5]];portConstraint=eastwest;whiteSpace=wrap;html=1;" vertex="1" parent="PHTcARnf6AAuARY0Qd6s-24">
          <mxGeometry y="58" width="350" height="40" as="geometry" />
        </mxCell>
        <mxCell id="PHTcARnf6AAuARY0Qd6s-35" value="&lt;font face=&quot;Lucida Console&quot;&gt;ObjectWrapper&lt;/font&gt;" style="swimlane;fontStyle=1;align=center;verticalAlign=top;childLayout=stackLayout;horizontal=1;startSize=26;horizontalStack=0;resizeParent=1;resizeParentMax=0;resizeLast=0;collapsible=1;marginBottom=0;whiteSpace=wrap;html=1;fillColor=#60a917;fontColor=#ffffff;strokeColor=#2D7600;" vertex="1" parent="WIyWlLk6GJQsqaUBKTNV-1">
          <mxGeometry x="-110" y="180" width="350" height="160" as="geometry" />
        </mxCell>
        <mxCell id="PHTcARnf6AAuARY0Qd6s-36" value="&lt;font face=&quot;Lucida Console&quot;&gt;&amp;nbsp;&lt;/font&gt;" style="text;strokeColor=none;fillColor=none;align=left;verticalAlign=top;spacingLeft=4;spacingRight=4;overflow=hidden;rotatable=0;points=[[0,0.5],[1,0.5]];portConstraint=eastwest;whiteSpace=wrap;html=1;" vertex="1" parent="PHTcARnf6AAuARY0Qd6s-35">
          <mxGeometry y="26" width="350" height="24" as="geometry" />
        </mxCell>
        <mxCell id="PHTcARnf6AAuARY0Qd6s-37" value="" style="line;strokeWidth=1;fillColor=none;align=left;verticalAlign=middle;spacingTop=-1;spacingLeft=3;spacingRight=3;rotatable=0;labelPosition=right;points=[];portConstraint=eastwest;strokeColor=inherit;" vertex="1" parent="PHTcARnf6AAuARY0Qd6s-35">
          <mxGeometry y="50" width="350" height="8" as="geometry" />
        </mxCell>
        <mxCell id="PHTcARnf6AAuARY0Qd6s-38" value="&lt;font face=&quot;Lucida Console&quot;&gt;+ get(PropertyTokenizer prop): Object&lt;br&gt; +&amp;nbsp;&lt;/font&gt;&lt;font face=&quot;Lucida Console&quot;&gt;set(PropertyTokenizer prop, Object value)&lt;br&gt;&lt;/font&gt;&lt;font style=&quot;border-color: var(--border-color);&quot; face=&quot;Lucida Console&quot;&gt;+ getGetterNames(): String[]&lt;br style=&quot;border-color: var(--border-color);&quot;&gt;+&amp;nbsp;&lt;/font&gt;&lt;font style=&quot;border-color: var(--border-color);&quot; face=&quot;Lucida Console&quot;&gt;getSetterNames(): String[]&lt;/font&gt;&lt;font face=&quot;Lucida Console&quot;&gt;&lt;br&gt;&lt;/font&gt;&lt;font style=&quot;border-color: var(--border-color);&quot; face=&quot;Lucida Console&quot;&gt;+ getGetterType(String name): Class&amp;lt;?&amp;gt;&lt;br style=&quot;border-color: var(--border-color);&quot;&gt;+&amp;nbsp;&lt;/font&gt;&lt;font style=&quot;border-color: var(--border-color);&quot; face=&quot;Lucida Console&quot;&gt;getSetterType(String name): Class&amp;lt;?&amp;gt;&lt;/font&gt;&lt;font face=&quot;Lucida Console&quot;&gt;&lt;br&gt;&lt;br&gt;&lt;br&gt;&lt;/font&gt;" style="text;strokeColor=none;fillColor=none;align=left;verticalAlign=top;spacingLeft=4;spacingRight=4;overflow=hidden;rotatable=0;points=[[0,0.5],[1,0.5]];portConstraint=eastwest;whiteSpace=wrap;html=1;" vertex="1" parent="PHTcARnf6AAuARY0Qd6s-35">
          <mxGeometry y="58" width="350" height="102" as="geometry" />
        </mxCell>
        <mxCell id="PHTcARnf6AAuARY0Qd6s-39" value="&lt;font face=&quot;Lucida Console&quot;&gt;BaseWrapper&lt;/font&gt;" style="swimlane;fontStyle=1;align=center;verticalAlign=top;childLayout=stackLayout;horizontal=1;startSize=26;horizontalStack=0;resizeParent=1;resizeParentMax=0;resizeLast=0;collapsible=1;marginBottom=0;whiteSpace=wrap;html=1;fillColor=#e51400;fontColor=#ffffff;strokeColor=#B20000;" vertex="1" parent="WIyWlLk6GJQsqaUBKTNV-1">
          <mxGeometry x="-140" y="460" width="380" height="160" as="geometry" />
        </mxCell>
        <mxCell id="PHTcARnf6AAuARY0Qd6s-40" value="&lt;font face=&quot;Lucida Console&quot;&gt;- metaObject: MetaObject&lt;br&gt;&lt;/font&gt;" style="text;strokeColor=none;fillColor=none;align=left;verticalAlign=top;spacingLeft=4;spacingRight=4;overflow=hidden;rotatable=0;points=[[0,0.5],[1,0.5]];portConstraint=eastwest;whiteSpace=wrap;html=1;" vertex="1" parent="PHTcARnf6AAuARY0Qd6s-39">
          <mxGeometry y="26" width="380" height="24" as="geometry" />
        </mxCell>
        <mxCell id="PHTcARnf6AAuARY0Qd6s-41" value="" style="line;strokeWidth=1;fillColor=none;align=left;verticalAlign=middle;spacingTop=-1;spacingLeft=3;spacingRight=3;rotatable=0;labelPosition=right;points=[];portConstraint=eastwest;strokeColor=inherit;" vertex="1" parent="PHTcARnf6AAuARY0Qd6s-39">
          <mxGeometry y="50" width="380" height="8" as="geometry" />
        </mxCell>
        <mxCell id="PHTcARnf6AAuARY0Qd6s-42" value="&lt;font face=&quot;Lucida Console&quot;&gt;+ resolveCollection(PropertyTokenizer prop, Object object)): Object&lt;br&gt; +&amp;nbsp;&lt;/font&gt;&lt;font face=&quot;Lucida Console&quot;&gt;getCollectionValue(PropertyTokenizer prop, Object collection):Object&lt;br&gt;&lt;/font&gt;&lt;font style=&quot;border-color: var(--border-color);&quot; face=&quot;Lucida Console&quot;&gt;+ setCollectionValue(PropertyTokenizer prop, Object collection, Object value)&lt;/font&gt;&lt;font face=&quot;Lucida Console&quot;&gt;&lt;br&gt;&lt;br&gt;&lt;br&gt;&lt;/font&gt;" style="text;strokeColor=none;fillColor=none;align=left;verticalAlign=top;spacingLeft=4;spacingRight=4;overflow=hidden;rotatable=0;points=[[0,0.5],[1,0.5]];portConstraint=eastwest;whiteSpace=wrap;html=1;" vertex="1" parent="PHTcARnf6AAuARY0Qd6s-39">
          <mxGeometry y="58" width="380" height="102" as="geometry" />
        </mxCell>
        <mxCell id="PHTcARnf6AAuARY0Qd6s-49" value="&lt;font face=&quot;Lucida Console&quot;&gt;BeanWrapper&lt;/font&gt;" style="swimlane;fontStyle=1;align=center;verticalAlign=top;childLayout=stackLayout;horizontal=1;startSize=26;horizontalStack=0;resizeParent=1;resizeParentMax=0;resizeLast=0;collapsible=1;marginBottom=0;whiteSpace=wrap;html=1;fillColor=#0050ef;fontColor=#ffffff;strokeColor=#001DBC;" vertex="1" parent="WIyWlLk6GJQsqaUBKTNV-1">
          <mxGeometry x="-140" y="720" width="380" height="180" as="geometry" />
        </mxCell>
        <mxCell id="PHTcARnf6AAuARY0Qd6s-50" value="&lt;font face=&quot;Lucida Console&quot;&gt;- object: Object&lt;br style=&quot;border-color: var(--border-color);&quot;&gt;- metaClass: MetaClass&lt;br&gt;&lt;/font&gt;" style="text;strokeColor=none;fillColor=none;align=left;verticalAlign=top;spacingLeft=4;spacingRight=4;overflow=hidden;rotatable=0;points=[[0,0.5],[1,0.5]];portConstraint=eastwest;whiteSpace=wrap;html=1;" vertex="1" parent="PHTcARnf6AAuARY0Qd6s-49">
          <mxGeometry y="26" width="380" height="44" as="geometry" />
        </mxCell>
        <mxCell id="PHTcARnf6AAuARY0Qd6s-51" value="" style="line;strokeWidth=1;fillColor=none;align=left;verticalAlign=middle;spacingTop=-1;spacingLeft=3;spacingRight=3;rotatable=0;labelPosition=right;points=[];portConstraint=eastwest;strokeColor=inherit;" vertex="1" parent="PHTcARnf6AAuARY0Qd6s-49">
          <mxGeometry y="70" width="380" height="8" as="geometry" />
        </mxCell>
        <mxCell id="PHTcARnf6AAuARY0Qd6s-52" value="&lt;font face=&quot;Lucida Console&quot;&gt;+ get(PropertyTokenizer prop): Object&lt;br&gt; +&amp;nbsp;&lt;/font&gt;&lt;font face=&quot;Lucida Console&quot;&gt;set(PropertyTokenizer prop, Object value)&lt;br&gt;&lt;/font&gt;&lt;font style=&quot;border-color: var(--border-color);&quot; face=&quot;Lucida Console&quot;&gt;+ getGetterNames(): String[]&lt;br style=&quot;border-color: var(--border-color);&quot;&gt;+&amp;nbsp;&lt;/font&gt;&lt;font style=&quot;border-color: var(--border-color);&quot; face=&quot;Lucida Console&quot;&gt;getSetterNames(): String[]&lt;/font&gt;&lt;font face=&quot;Lucida Console&quot;&gt;&lt;br&gt;&lt;/font&gt;&lt;font style=&quot;border-color: var(--border-color);&quot; face=&quot;Lucida Console&quot;&gt;+ getGetterType(String name): Class&amp;lt;?&amp;gt;&lt;br style=&quot;border-color: var(--border-color);&quot;&gt;+&amp;nbsp;&lt;/font&gt;&lt;font style=&quot;border-color: var(--border-color);&quot; face=&quot;Lucida Console&quot;&gt;getSetterType(String name): Class&amp;lt;?&amp;gt;&lt;/font&gt;&lt;font face=&quot;Lucida Console&quot;&gt;&lt;br&gt;&lt;br&gt;&lt;br&gt;&lt;/font&gt;" style="text;strokeColor=none;fillColor=none;align=left;verticalAlign=top;spacingLeft=4;spacingRight=4;overflow=hidden;rotatable=0;points=[[0,0.5],[1,0.5]];portConstraint=eastwest;whiteSpace=wrap;html=1;" vertex="1" parent="PHTcARnf6AAuARY0Qd6s-49">
          <mxGeometry y="78" width="380" height="102" as="geometry" />
        </mxCell>
        <mxCell id="PHTcARnf6AAuARY0Qd6s-53" value="&lt;font face=&quot;Lucida Console&quot;&gt;CollectionWrapper&lt;/font&gt;" style="swimlane;fontStyle=1;align=center;verticalAlign=top;childLayout=stackLayout;horizontal=1;startSize=26;horizontalStack=0;resizeParent=1;resizeParentMax=0;resizeLast=0;collapsible=1;marginBottom=0;whiteSpace=wrap;html=1;fillColor=#0050ef;fontColor=#ffffff;strokeColor=#001DBC;" vertex="1" parent="WIyWlLk6GJQsqaUBKTNV-1">
          <mxGeometry x="320" y="720" width="380" height="170" as="geometry" />
        </mxCell>
        <mxCell id="PHTcARnf6AAuARY0Qd6s-54" value="&lt;font face=&quot;Lucida Console&quot;&gt;- object: Collection&amp;lt;Object&amp;gt;&lt;br&gt;&lt;/font&gt;" style="text;strokeColor=none;fillColor=none;align=left;verticalAlign=top;spacingLeft=4;spacingRight=4;overflow=hidden;rotatable=0;points=[[0,0.5],[1,0.5]];portConstraint=eastwest;whiteSpace=wrap;html=1;" vertex="1" parent="PHTcARnf6AAuARY0Qd6s-53">
          <mxGeometry y="26" width="380" height="34" as="geometry" />
        </mxCell>
        <mxCell id="PHTcARnf6AAuARY0Qd6s-55" value="" style="line;strokeWidth=1;fillColor=none;align=left;verticalAlign=middle;spacingTop=-1;spacingLeft=3;spacingRight=3;rotatable=0;labelPosition=right;points=[];portConstraint=eastwest;strokeColor=inherit;" vertex="1" parent="PHTcARnf6AAuARY0Qd6s-53">
          <mxGeometry y="60" width="380" height="8" as="geometry" />
        </mxCell>
        <mxCell id="PHTcARnf6AAuARY0Qd6s-56" value="&lt;font face=&quot;Lucida Console&quot;&gt;+ get(PropertyTokenizer prop): Object&lt;br&gt; +&amp;nbsp;&lt;/font&gt;&lt;font face=&quot;Lucida Console&quot;&gt;set(PropertyTokenizer prop, Object value)&lt;br&gt;&lt;/font&gt;&lt;font style=&quot;border-color: var(--border-color);&quot; face=&quot;Lucida Console&quot;&gt;+ getGetterNames(): String[]&lt;br style=&quot;border-color: var(--border-color);&quot;&gt;+&amp;nbsp;&lt;/font&gt;&lt;font style=&quot;border-color: var(--border-color);&quot; face=&quot;Lucida Console&quot;&gt;getSetterNames(): String[]&lt;/font&gt;&lt;font face=&quot;Lucida Console&quot;&gt;&lt;br&gt;&lt;/font&gt;&lt;font style=&quot;border-color: var(--border-color);&quot; face=&quot;Lucida Console&quot;&gt;+ getGetterType(String name): Class&amp;lt;?&amp;gt;&lt;br style=&quot;border-color: var(--border-color);&quot;&gt;+&amp;nbsp;&lt;/font&gt;&lt;font style=&quot;border-color: var(--border-color);&quot; face=&quot;Lucida Console&quot;&gt;getSetterType(String name): Class&amp;lt;?&amp;gt;&lt;/font&gt;&lt;font face=&quot;Lucida Console&quot;&gt;&lt;br&gt;&lt;br&gt;&lt;br&gt;&lt;/font&gt;" style="text;strokeColor=none;fillColor=none;align=left;verticalAlign=top;spacingLeft=4;spacingRight=4;overflow=hidden;rotatable=0;points=[[0,0.5],[1,0.5]];portConstraint=eastwest;whiteSpace=wrap;html=1;" vertex="1" parent="PHTcARnf6AAuARY0Qd6s-53">
          <mxGeometry y="68" width="380" height="102" as="geometry" />
        </mxCell>
        <mxCell id="PHTcARnf6AAuARY0Qd6s-59" value="&lt;font face=&quot;Lucida Console&quot;&gt;MapWrapper&lt;/font&gt;" style="swimlane;fontStyle=1;align=center;verticalAlign=top;childLayout=stackLayout;horizontal=1;startSize=26;horizontalStack=0;resizeParent=1;resizeParentMax=0;resizeLast=0;collapsible=1;marginBottom=0;whiteSpace=wrap;html=1;fillColor=#0050ef;fontColor=#ffffff;strokeColor=#001DBC;" vertex="1" parent="WIyWlLk6GJQsqaUBKTNV-1">
          <mxGeometry x="780" y="720" width="380" height="170" as="geometry" />
        </mxCell>
        <mxCell id="PHTcARnf6AAuARY0Qd6s-60" value="&lt;font face=&quot;Lucida Console&quot;&gt;- object: Map&amp;lt;String, Object&amp;gt;&lt;br&gt;&lt;/font&gt;" style="text;strokeColor=none;fillColor=none;align=left;verticalAlign=top;spacingLeft=4;spacingRight=4;overflow=hidden;rotatable=0;points=[[0,0.5],[1,0.5]];portConstraint=eastwest;whiteSpace=wrap;html=1;" vertex="1" parent="PHTcARnf6AAuARY0Qd6s-59">
          <mxGeometry y="26" width="380" height="34" as="geometry" />
        </mxCell>
        <mxCell id="PHTcARnf6AAuARY0Qd6s-61" value="" style="line;strokeWidth=1;fillColor=none;align=left;verticalAlign=middle;spacingTop=-1;spacingLeft=3;spacingRight=3;rotatable=0;labelPosition=right;points=[];portConstraint=eastwest;strokeColor=inherit;" vertex="1" parent="PHTcARnf6AAuARY0Qd6s-59">
          <mxGeometry y="60" width="380" height="8" as="geometry" />
        </mxCell>
        <mxCell id="PHTcARnf6AAuARY0Qd6s-62" value="&lt;font face=&quot;Lucida Console&quot;&gt;+ get(PropertyTokenizer prop): Object&lt;br&gt; +&amp;nbsp;&lt;/font&gt;&lt;font face=&quot;Lucida Console&quot;&gt;set(PropertyTokenizer prop, Object value)&lt;br&gt;&lt;/font&gt;&lt;font style=&quot;border-color: var(--border-color);&quot; face=&quot;Lucida Console&quot;&gt;+ getGetterNames(): String[]&lt;br style=&quot;border-color: var(--border-color);&quot;&gt;+&amp;nbsp;&lt;/font&gt;&lt;font style=&quot;border-color: var(--border-color);&quot; face=&quot;Lucida Console&quot;&gt;getSetterNames(): String[]&lt;/font&gt;&lt;font face=&quot;Lucida Console&quot;&gt;&lt;br&gt;&lt;/font&gt;&lt;font style=&quot;border-color: var(--border-color);&quot; face=&quot;Lucida Console&quot;&gt;+ getGetterType(String name): Class&amp;lt;?&amp;gt;&lt;br style=&quot;border-color: var(--border-color);&quot;&gt;+&amp;nbsp;&lt;/font&gt;&lt;font style=&quot;border-color: var(--border-color);&quot; face=&quot;Lucida Console&quot;&gt;getSetterType(String name): Class&amp;lt;?&amp;gt;&lt;/font&gt;&lt;font face=&quot;Lucida Console&quot;&gt;&lt;br&gt;&lt;br&gt;&lt;br&gt;&lt;/font&gt;" style="text;strokeColor=none;fillColor=none;align=left;verticalAlign=top;spacingLeft=4;spacingRight=4;overflow=hidden;rotatable=0;points=[[0,0.5],[1,0.5]];portConstraint=eastwest;whiteSpace=wrap;html=1;" vertex="1" parent="PHTcARnf6AAuARY0Qd6s-59">
          <mxGeometry y="68" width="380" height="102" as="geometry" />
        </mxCell>
        <mxCell id="PHTcARnf6AAuARY0Qd6s-64" value="&lt;font face=&quot;Lucida Console&quot;&gt;ObjectWrapperFactory&lt;/font&gt;" style="swimlane;fontStyle=1;align=center;verticalAlign=top;childLayout=stackLayout;horizontal=1;startSize=26;horizontalStack=0;resizeParent=1;resizeParentMax=0;resizeLast=0;collapsible=1;marginBottom=0;whiteSpace=wrap;html=1;fillColor=#e3c800;fontColor=#000000;strokeColor=#B09500;" vertex="1" parent="WIyWlLk6GJQsqaUBKTNV-1">
          <mxGeometry x="-140" y="980" width="380" height="120" as="geometry" />
        </mxCell>
        <mxCell id="PHTcARnf6AAuARY0Qd6s-65" value="&lt;font face=&quot;Lucida Console&quot;&gt;&amp;nbsp;&lt;br&gt;&lt;/font&gt;" style="text;strokeColor=none;fillColor=none;align=left;verticalAlign=top;spacingLeft=4;spacingRight=4;overflow=hidden;rotatable=0;points=[[0,0.5],[1,0.5]];portConstraint=eastwest;whiteSpace=wrap;html=1;" vertex="1" parent="PHTcARnf6AAuARY0Qd6s-64">
          <mxGeometry y="26" width="380" height="24" as="geometry" />
        </mxCell>
        <mxCell id="PHTcARnf6AAuARY0Qd6s-66" value="" style="line;strokeWidth=1;fillColor=none;align=left;verticalAlign=middle;spacingTop=-1;spacingLeft=3;spacingRight=3;rotatable=0;labelPosition=right;points=[];portConstraint=eastwest;strokeColor=inherit;" vertex="1" parent="PHTcARnf6AAuARY0Qd6s-64">
          <mxGeometry y="50" width="380" height="8" as="geometry" />
        </mxCell>
        <mxCell id="PHTcARnf6AAuARY0Qd6s-67" value="&lt;font face=&quot;Lucida Console&quot;&gt;+ hasWrapperFor(Object object): boolean&lt;br&gt; +&amp;nbsp;&lt;/font&gt;&lt;font face=&quot;Lucida Console&quot;&gt;getWrapperFor(MetaObject metaObject, Object object): ObjectWrapper&lt;/font&gt;&lt;font face=&quot;Lucida Console&quot;&gt;&lt;br&gt;&lt;br&gt;&lt;br&gt;&lt;/font&gt;" style="text;strokeColor=none;fillColor=none;align=left;verticalAlign=top;spacingLeft=4;spacingRight=4;overflow=hidden;rotatable=0;points=[[0,0.5],[1,0.5]];portConstraint=eastwest;whiteSpace=wrap;html=1;" vertex="1" parent="PHTcARnf6AAuARY0Qd6s-64">
          <mxGeometry y="58" width="380" height="62" as="geometry" />
        </mxCell>
        <mxCell id="PHTcARnf6AAuARY0Qd6s-69" value="&lt;font face=&quot;Lucida Console&quot;&gt;MetaObject&lt;/font&gt;" style="swimlane;fontStyle=1;align=center;verticalAlign=top;childLayout=stackLayout;horizontal=1;startSize=26;horizontalStack=0;resizeParent=1;resizeParentMax=0;resizeLast=0;collapsible=1;marginBottom=0;whiteSpace=wrap;html=1;fillColor=#0050ef;fontColor=#ffffff;strokeColor=#001DBC;" vertex="1" parent="WIyWlLk6GJQsqaUBKTNV-1">
          <mxGeometry x="320" y="980" width="350" height="148" as="geometry" />
        </mxCell>
        <mxCell id="PHTcARnf6AAuARY0Qd6s-70" value="&lt;font face=&quot;Lucida Console&quot;&gt;-&amp;nbsp;originalObject&lt;span style=&quot;background-color: initial;&quot;&gt;: Object&lt;/span&gt;&lt;br&gt;&lt;/font&gt;&lt;font face=&quot;Lucida Console&quot;&gt;- objectWrapper: ObjectWrapper&lt;br&gt;- objectFactory: ObjectFactory&lt;br&gt;- objectWrapperFactory: ObjectWrapperFactory&lt;br&gt;&lt;/font&gt;" style="text;strokeColor=none;fillColor=none;align=left;verticalAlign=top;spacingLeft=4;spacingRight=4;overflow=hidden;rotatable=0;points=[[0,0.5],[1,0.5]];portConstraint=eastwest;whiteSpace=wrap;html=1;" vertex="1" parent="PHTcARnf6AAuARY0Qd6s-69">
          <mxGeometry y="26" width="350" height="74" as="geometry" />
        </mxCell>
        <mxCell id="PHTcARnf6AAuARY0Qd6s-71" value="" style="line;strokeWidth=1;fillColor=none;align=left;verticalAlign=middle;spacingTop=-1;spacingLeft=3;spacingRight=3;rotatable=0;labelPosition=right;points=[];portConstraint=eastwest;strokeColor=inherit;" vertex="1" parent="PHTcARnf6AAuARY0Qd6s-69">
          <mxGeometry y="100" width="350" height="8" as="geometry" />
        </mxCell>
        <mxCell id="PHTcARnf6AAuARY0Qd6s-72" value="&lt;font face=&quot;Lucida Console&quot;&gt;+ getValue(String name): Object&lt;br&gt; +&amp;nbsp;&lt;/font&gt;&lt;font face=&quot;Lucida Console&quot;&gt;setValue(String name, Object value)&lt;br&gt;&lt;/font&gt;" style="text;strokeColor=none;fillColor=none;align=left;verticalAlign=top;spacingLeft=4;spacingRight=4;overflow=hidden;rotatable=0;points=[[0,0.5],[1,0.5]];portConstraint=eastwest;whiteSpace=wrap;html=1;" vertex="1" parent="PHTcARnf6AAuARY0Qd6s-69">
          <mxGeometry y="108" width="350" height="40" as="geometry" />
        </mxCell>
        <mxCell id="PHTcARnf6AAuARY0Qd6s-73" value="&lt;font face=&quot;Lucida Console&quot;&gt;SystemMetaObject&lt;/font&gt;" style="swimlane;fontStyle=1;align=center;verticalAlign=top;childLayout=stackLayout;horizontal=1;startSize=26;horizontalStack=0;resizeParent=1;resizeParentMax=0;resizeLast=0;collapsible=1;marginBottom=0;whiteSpace=wrap;html=1;fillColor=#0050ef;fontColor=#ffffff;strokeColor=#001DBC;" vertex="1" parent="WIyWlLk6GJQsqaUBKTNV-1">
          <mxGeometry x="780" y="980" width="410" height="130" as="geometry" />
        </mxCell>
        <mxCell id="PHTcARnf6AAuARY0Qd6s-74" value="&lt;font face=&quot;Lucida Console&quot;&gt;-&amp;nbsp;&lt;span style=&quot;background-color: initial;&quot;&gt;NULL_META_OBJECT: MetaObject&lt;/span&gt;&lt;/font&gt;&lt;font face=&quot;Lucida Console&quot;&gt;&lt;br&gt;- DEFAULT_OBJECT_FACTORY: ObjectFactory&lt;br&gt;- DEFAULT_OBJECT_WRAPPER_FACTORY: ObjectWrapperFactory&lt;br&gt;&lt;/font&gt;" style="text;strokeColor=none;fillColor=none;align=left;verticalAlign=top;spacingLeft=4;spacingRight=4;overflow=hidden;rotatable=0;points=[[0,0.5],[1,0.5]];portConstraint=eastwest;whiteSpace=wrap;html=1;" vertex="1" parent="PHTcARnf6AAuARY0Qd6s-73">
          <mxGeometry y="26" width="410" height="64" as="geometry" />
        </mxCell>
        <mxCell id="PHTcARnf6AAuARY0Qd6s-75" value="" style="line;strokeWidth=1;fillColor=none;align=left;verticalAlign=middle;spacingTop=-1;spacingLeft=3;spacingRight=3;rotatable=0;labelPosition=right;points=[];portConstraint=eastwest;strokeColor=inherit;" vertex="1" parent="PHTcARnf6AAuARY0Qd6s-73">
          <mxGeometry y="90" width="410" height="8" as="geometry" />
        </mxCell>
        <mxCell id="PHTcARnf6AAuARY0Qd6s-76" value="&lt;font face=&quot;Lucida Console&quot;&gt;+ forObject(Object object): MetaObject&lt;/font&gt;&lt;font face=&quot;Lucida Console&quot;&gt;&lt;br&gt;&lt;/font&gt;" style="text;strokeColor=none;fillColor=none;align=left;verticalAlign=top;spacingLeft=4;spacingRight=4;overflow=hidden;rotatable=0;points=[[0,0.5],[1,0.5]];portConstraint=eastwest;whiteSpace=wrap;html=1;" vertex="1" parent="PHTcARnf6AAuARY0Qd6s-73">
          <mxGeometry y="98" width="410" height="32" as="geometry" />
        </mxCell>
        <mxCell id="PHTcARnf6AAuARY0Qd6s-78" value="" style="endArrow=diamondThin;endFill=0;endSize=24;html=1;rounded=0;entryX=0.469;entryY=0.008;entryDx=0;entryDy=0;entryPerimeter=0;" edge="1" parent="WIyWlLk6GJQsqaUBKTNV-1">
          <mxGeometry width="160" relative="1" as="geometry">
            <mxPoint x="504.85" y="488" as="sourcePoint" />
            <mxPoint x="504.5000000000001" y="566.7840000000001" as="targetPoint" />
          </mxGeometry>
        </mxCell>
        <mxCell id="PHTcARnf6AAuARY0Qd6s-79" value="聚合" style="edgeLabel;html=1;align=center;verticalAlign=middle;resizable=0;points=[];" vertex="1" connectable="0" parent="PHTcARnf6AAuARY0Qd6s-78">
          <mxGeometry x="-0.208" y="1" relative="1" as="geometry">
            <mxPoint as="offset" />
          </mxGeometry>
        </mxCell>
        <mxCell id="PHTcARnf6AAuARY0Qd6s-80" value="继承" style="endArrow=block;endSize=16;endFill=0;html=1;rounded=0;entryX=0.473;entryY=0.98;entryDx=0;entryDy=0;entryPerimeter=0;exitX=0.473;exitY=-0.011;exitDx=0;exitDy=0;exitPerimeter=0;" edge="1" parent="WIyWlLk6GJQsqaUBKTNV-1">
          <mxGeometry width="160" relative="1" as="geometry">
            <mxPoint x="-19.999999999999986" y="718.02" as="sourcePoint" />
            <mxPoint x="-19.999999999999986" y="620" as="targetPoint" />
          </mxGeometry>
        </mxCell>
        <mxCell id="PHTcARnf6AAuARY0Qd6s-81" value="" style="endArrow=block;dashed=1;endFill=0;endSize=12;html=1;rounded=0;entryX=0.429;entryY=1;entryDx=0;entryDy=0;entryPerimeter=0;" edge="1" parent="WIyWlLk6GJQsqaUBKTNV-1" target="PHTcARnf6AAuARY0Qd6s-38">
          <mxGeometry width="160" relative="1" as="geometry">
            <mxPoint x="40" y="460" as="sourcePoint" />
            <mxPoint x="-80" y="680" as="targetPoint" />
          </mxGeometry>
        </mxCell>
        <mxCell id="PHTcARnf6AAuARY0Qd6s-82" value="实现" style="edgeLabel;html=1;align=center;verticalAlign=middle;resizable=0;points=[];" vertex="1" connectable="0" parent="PHTcARnf6AAuARY0Qd6s-81">
          <mxGeometry x="-0.1625" relative="1" as="geometry">
            <mxPoint as="offset" />
          </mxGeometry>
        </mxCell>
        <mxCell id="PHTcARnf6AAuARY0Qd6s-83" value="" style="endArrow=block;dashed=1;endFill=0;endSize=12;html=1;rounded=0;" edge="1" parent="WIyWlLk6GJQsqaUBKTNV-1">
          <mxGeometry width="160" relative="1" as="geometry">
            <mxPoint x="760" y="210" as="sourcePoint" />
            <mxPoint x="680" y="210" as="targetPoint" />
          </mxGeometry>
        </mxCell>
        <mxCell id="PHTcARnf6AAuARY0Qd6s-84" value="实现" style="edgeLabel;html=1;align=center;verticalAlign=middle;resizable=0;points=[];" vertex="1" connectable="0" parent="PHTcARnf6AAuARY0Qd6s-83">
          <mxGeometry x="-0.055" y="-1" relative="1" as="geometry">
            <mxPoint as="offset" />
          </mxGeometry>
        </mxCell>
        <mxCell id="PHTcARnf6AAuARY0Qd6s-85" value="" style="endArrow=block;dashed=1;endFill=0;endSize=12;html=1;rounded=0;exitX=-0.005;exitY=0.02;exitDx=0;exitDy=0;exitPerimeter=0;" edge="1" parent="WIyWlLk6GJQsqaUBKTNV-1" source="PHTcARnf6AAuARY0Qd6s-12">
          <mxGeometry width="160" relative="1" as="geometry">
            <mxPoint x="760" y="238.5" as="sourcePoint" />
            <mxPoint x="680" y="238.5" as="targetPoint" />
            <Array as="points">
              <mxPoint x="740" y="399" />
              <mxPoint x="740" y="320" />
              <mxPoint x="740" y="280" />
              <mxPoint x="740" y="239" />
              <mxPoint x="730" y="239" />
            </Array>
          </mxGeometry>
        </mxCell>
        <mxCell id="PHTcARnf6AAuARY0Qd6s-86" value="实现" style="edgeLabel;html=1;align=center;verticalAlign=middle;resizable=0;points=[];" vertex="1" connectable="0" parent="PHTcARnf6AAuARY0Qd6s-85">
          <mxGeometry x="-0.055" y="-1" relative="1" as="geometry">
            <mxPoint as="offset" />
          </mxGeometry>
        </mxCell>
        <mxCell id="PHTcARnf6AAuARY0Qd6s-88" value="" style="endArrow=block;dashed=1;endFill=0;endSize=12;html=1;rounded=0;exitX=-0.012;exitY=-0.09;exitDx=0;exitDy=0;exitPerimeter=0;" edge="1" parent="WIyWlLk6GJQsqaUBKTNV-1" source="PHTcARnf6AAuARY0Qd6s-17">
          <mxGeometry width="160" relative="1" as="geometry">
            <mxPoint x="758" y="420.5" as="sourcePoint" />
            <mxPoint x="680" y="260" as="targetPoint" />
            <Array as="points">
              <mxPoint x="740" y="536" />
              <mxPoint x="710" y="536" />
              <mxPoint x="710" y="480" />
              <mxPoint x="710" y="390" />
              <mxPoint x="710" y="310" />
              <mxPoint x="710" y="260" />
            </Array>
          </mxGeometry>
        </mxCell>
        <mxCell id="PHTcARnf6AAuARY0Qd6s-89" value="实现" style="edgeLabel;html=1;align=center;verticalAlign=middle;resizable=0;points=[];" vertex="1" connectable="0" parent="PHTcARnf6AAuARY0Qd6s-88">
          <mxGeometry x="-0.055" y="-1" relative="1" as="geometry">
            <mxPoint as="offset" />
          </mxGeometry>
        </mxCell>
        <mxCell id="PHTcARnf6AAuARY0Qd6s-90" value="" style="endArrow=block;endSize=16;endFill=0;html=1;rounded=0;entryX=0.473;entryY=0.98;entryDx=0;entryDy=0;entryPerimeter=0;exitX=0.421;exitY=0.007;exitDx=0;exitDy=0;exitPerimeter=0;" edge="1" parent="WIyWlLk6GJQsqaUBKTNV-1" source="PHTcARnf6AAuARY0Qd6s-53">
          <mxGeometry width="160" relative="1" as="geometry">
            <mxPoint x="319.9999999999999" y="810.0319999999999" as="sourcePoint" />
            <mxPoint x="50.38000000000001" y="620" as="targetPoint" />
            <Array as="points">
              <mxPoint x="480" y="700" />
              <mxPoint x="260" y="700" />
              <mxPoint x="50.38" y="700" />
            </Array>
          </mxGeometry>
        </mxCell>
        <mxCell id="PHTcARnf6AAuARY0Qd6s-91" value="继承" style="edgeLabel;html=1;align=center;verticalAlign=middle;resizable=0;points=[];" vertex="1" connectable="0" parent="PHTcARnf6AAuARY0Qd6s-90">
          <mxGeometry x="0.812" y="3" relative="1" as="geometry">
            <mxPoint as="offset" />
          </mxGeometry>
        </mxCell>
        <mxCell id="PHTcARnf6AAuARY0Qd6s-92" value="" style="endArrow=block;endSize=16;endFill=0;html=1;rounded=0;entryX=0.473;entryY=0.98;entryDx=0;entryDy=0;entryPerimeter=0;" edge="1" parent="WIyWlLk6GJQsqaUBKTNV-1">
          <mxGeometry width="160" relative="1" as="geometry">
            <mxPoint x="960" y="720" as="sourcePoint" />
            <mxPoint x="130" y="620" as="targetPoint" />
            <Array as="points">
              <mxPoint x="960" y="680" />
              <mxPoint x="340" y="680" />
              <mxPoint x="130" y="680" />
            </Array>
          </mxGeometry>
        </mxCell>
        <mxCell id="PHTcARnf6AAuARY0Qd6s-94" value="继承" style="edgeLabel;html=1;align=center;verticalAlign=middle;resizable=0;points=[];" vertex="1" connectable="0" parent="PHTcARnf6AAuARY0Qd6s-92">
          <mxGeometry x="0.9044" y="1" relative="1" as="geometry">
            <mxPoint as="offset" />
          </mxGeometry>
        </mxCell>
        <mxCell id="PHTcARnf6AAuARY0Qd6s-95" value="" style="endArrow=diamondThin;endFill=0;endSize=24;html=1;rounded=0;entryX=1.006;entryY=0.212;entryDx=0;entryDy=0;entryPerimeter=0;exitX=-0.006;exitY=1.083;exitDx=0;exitDy=0;exitPerimeter=0;" edge="1" parent="WIyWlLk6GJQsqaUBKTNV-1" source="PHTcARnf6AAuARY0Qd6s-25" target="PHTcARnf6AAuARY0Qd6s-52">
          <mxGeometry width="160" relative="1" as="geometry">
            <mxPoint x="290.5" y="780" as="sourcePoint" />
            <mxPoint x="290" y="859" as="targetPoint" />
            <Array as="points">
              <mxPoint x="290" y="618" />
              <mxPoint x="290" y="720" />
              <mxPoint x="290" y="820" />
            </Array>
          </mxGeometry>
        </mxCell>
        <mxCell id="PHTcARnf6AAuARY0Qd6s-97" value="聚合" style="edgeLabel;html=1;align=center;verticalAlign=middle;resizable=0;points=[];" vertex="1" connectable="0" parent="PHTcARnf6AAuARY0Qd6s-95">
          <mxGeometry x="0.1439" relative="1" as="geometry">
            <mxPoint y="-1" as="offset" />
          </mxGeometry>
        </mxCell>
        <mxCell id="PHTcARnf6AAuARY0Qd6s-98" value="依赖" style="endArrow=open;endSize=12;dashed=1;html=1;rounded=0;exitX=0.5;exitY=0;exitDx=0;exitDy=0;" edge="1" parent="WIyWlLk6GJQsqaUBKTNV-1" source="PHTcARnf6AAuARY0Qd6s-19">
          <mxGeometry x="-0.0044" y="-3" width="160" relative="1" as="geometry">
            <mxPoint x="520" y="360" as="sourcePoint" />
            <mxPoint x="505" y="280" as="targetPoint" />
            <mxPoint as="offset" />
          </mxGeometry>
        </mxCell>
        <mxCell id="PHTcARnf6AAuARY0Qd6s-99" value="依赖" style="endArrow=open;endSize=12;dashed=1;html=1;rounded=0;exitX=0.473;exitY=-0.017;exitDx=0;exitDy=0;exitPerimeter=0;" edge="1" parent="WIyWlLk6GJQsqaUBKTNV-1" source="PHTcARnf6AAuARY0Qd6s-64">
          <mxGeometry x="-0.0044" y="-3" width="160" relative="1" as="geometry">
            <mxPoint x="40" y="970" as="sourcePoint" />
            <mxPoint x="40" y="900" as="targetPoint" />
            <mxPoint as="offset" />
          </mxGeometry>
        </mxCell>
        <mxCell id="PHTcARnf6AAuARY0Qd6s-100" value="依赖" style="endArrow=open;endSize=12;dashed=1;html=1;rounded=0;entryX=1.004;entryY=0.194;entryDx=0;entryDy=0;entryPerimeter=0;" edge="1" parent="WIyWlLk6GJQsqaUBKTNV-1">
          <mxGeometry x="-0.0044" y="-3" width="160" relative="1" as="geometry">
            <mxPoint x="317" y="1045" as="sourcePoint" />
            <mxPoint x="239.99999999999997" y="1044.498" as="targetPoint" />
            <mxPoint as="offset" />
          </mxGeometry>
        </mxCell>
        <mxCell id="PHTcARnf6AAuARY0Qd6s-101" value="依赖" style="endArrow=open;endSize=12;dashed=1;html=1;rounded=0;exitX=-0.006;exitY=0.625;exitDx=0;exitDy=0;exitPerimeter=0;entryX=1.004;entryY=0.194;entryDx=0;entryDy=0;entryPerimeter=0;" edge="1" parent="WIyWlLk6GJQsqaUBKTNV-1" source="PHTcARnf6AAuARY0Qd6s-74">
          <mxGeometry x="-0.0044" y="-3" width="160" relative="1" as="geometry">
            <mxPoint x="746" y="1045.5" as="sourcePoint" />
            <mxPoint x="670" y="1044.5" as="targetPoint" />
            <mxPoint as="offset" />
          </mxGeometry>
        </mxCell>
      </root>
    </mxGraphModel>
  </diagram>
</mxfile>
